{
    "asset" : {
        "generator" : "Khronos glTF Blender I/O v1.7.33",
        "version" : "2.0"
    },
    "scene" : 0,
    "scenes" : [
        {
            "name" : "Scene",
            "nodes" : [
                0,
                1,
                2,
                3,
                4,
                5,
                6,
                7,
                8,
                9
            ]
        }
    ],
    "nodes" : [
        {
            "mesh" : 0,
            "name" : "Sphere",
            "scale" : [
                26.215234756469727,
                20.2833309173584,
                -23.343046188354492
            ],
            "translation" : [
                9.48108196258545,
                1.0763750076293945,
                18.071712493896484
            ]
        },
        {
            "mesh" : 1,
            "name" : "Sphere.001",
            "translation" : [
                0.8354082107543945,
                0.4170713424682617,
                -12.15041446685791
            ]
        },
        {
            "mesh" : 2,
            "name" : "Sphere.003",
            "translation" : [
                -7.22972297668457,
                4.5696120262146,
                -21.43834686279297
            ]
        },
        {
            "mesh" : 3,
            "name" : "Sphere.004",
            "scale" : [
                0.9028521776199341,
                0.8314608931541443,
                0.6733112931251526
            ],
            "translation" : [
                -16.74941062927246,
                8.00014591217041,
                -21.29175567626953
            ]
        },
        {
            "mesh" : 4,
            "name" : "Sphere.002",
            "translation" : [
                -10.344128608703613,
                3.2051992416381836,
                -12.434455871582031
            ]
        },
        {
            "mesh" : 5,
            "name" : "Sphere.005",
            "scale" : [
                3.7237210273742676,
                3.5200793743133545,
                -3.4719204902648926
            ],
            "translation" : [
                -28.7891902923584,
                3.6614785194396973,
                -4.950311660766602
            ]
        },
        {
            "mesh" : 6,
            "name" : "Sphere.007",
            "scale" : [
                2.776707649230957,
                3.0213658809661865,
                -3.275953531265259
            ],
            "translation" : [
                9.720220565795898,
                9.928654670715332,
                -45.49224090576172
            ]
        },
        {
            "mesh" : 7,
            "name" : "Torus",
            "scale" : [
                7.550247669219971,
                0.7618172764778137,
                8.760788917541504
            ],
            "translation" : [
                9.801767349243164,
                10.510055541992188,
                -45.374290466308594
            ]
        },
        {
            "mesh" : 8,
            "name" : "Sphere.008",
            "scale" : [
                2.776707649230957,
                3.0213658809661865,
                -3.275953531265259
            ],
            "translation" : [
                -31.239885330200195,
                2.517454147338867,
                -29.751136779785156
            ]
        },
        {
            "mesh" : 9,
            "name" : "Sphere.009",
            "scale" : [
                2.776707649230957,
                3.0213658809661865,
                -3.275953531265259
            ],
            "translation" : [
                3.641530990600586,
                19.86771011352539,
                -58.83889389038086
            ]
        }
    ],
    "materials" : [
        {
            "doubleSided" : true,
            "name" : "Material.001",
            "pbrMetallicRoughness" : {}
        },
        {
            "doubleSided" : true,
            "name" : "Material.002",
            "pbrMetallicRoughness" : {
                "baseColorFactor" : [
                    0.8000000715255737,
                    0.16748936474323273,
                    0.001921927323564887,
                    1
                ],
                "metallicFactor" : 0,
                "roughnessFactor" : 0.5
            }
        },
        {
            "doubleSided" : true,
            "name" : "Material.004",
            "pbrMetallicRoughness" : {
                "baseColorFactor" : [
                    0.007001851685345173,
                    0.01520542148500681,
                    0.8000000715255737,
                    1
                ],
                "metallicFactor" : 0,
                "roughnessFactor" : 0.5
            }
        },
        {
            "doubleSided" : true,
            "name" : "Material.005",
            "pbrMetallicRoughness" : {
                "baseColorFactor" : [
                    0.8000000715255737,
                    0.06829953193664551,
                    0.007147182710468769,
                    1
                ],
                "metallicFactor" : 0,
                "roughnessFactor" : 0.5
            }
        },
        {
            "doubleSided" : true,
            "name" : "Material.003",
            "pbrMetallicRoughness" : {
                "baseColorFactor" : [
                    0.8000000715255737,
                    0.4631092846393585,
                    0.029590360820293427,
                    1
                ],
                "metallicFactor" : 0,
                "roughnessFactor" : 0.5
            }
        },
        {
            "doubleSided" : true,
            "name" : "Material.006",
            "pbrMetallicRoughness" : {
                "baseColorFactor" : [
                    0.8000000715255737,
                    0.16585367918014526,
                    0,
                    1
                ],
                "metallicFactor" : 0,
                "roughnessFactor" : 0.28740155696868896
            }
        },
        {
            "doubleSided" : true,
            "name" : "Material.007",
            "pbrMetallicRoughness" : {
                "baseColorFactor" : [
                    0.8000000715255737,
                    0.39365747570991516,
                    0.08156803250312805,
                    1
                ],
                "metallicFactor" : 0,
                "roughnessFactor" : 0.5
            }
        },
        {
            "doubleSided" : true,
            "name" : "Material.008",
            "pbrMetallicRoughness" : {
                "baseColorFactor" : [
                    0.8000000715255737,
                    0.6625306010246277,
                    0.33730384707450867,
                    1
                ],
                "metallicFactor" : 0,
                "roughnessFactor" : 0.5
            }
        },
        {
            "doubleSided" : true,
            "name" : "Material.009",
            "pbrMetallicRoughness" : {
                "baseColorFactor" : [
                    0.002747550141066313,
                    0.7325727939605713,
                    0.8000000715255737,
                    1
                ],
                "metallicFactor" : 0,
                "roughnessFactor" : 0.5
            }
        },
        {
            "doubleSided" : true,
            "name" : "Material.010",
            "pbrMetallicRoughness" : {
                "baseColorFactor" : [
                    0,
                    0.0030094876419752836,
                    0.8000000715255737,
                    1
                ],
                "metallicFactor" : 0,
                "roughnessFactor" : 0.5
            }
        }
    ],
    "meshes" : [
        {
            "name" : "Sphere",
            "primitives" : [
                {
                    "attributes" : {
                        "POSITION" : 0,
                        "NORMAL" : 1,
                        "TEXCOORD_0" : 2
                    },
                    "indices" : 3,
                    "material" : 0
                }
            ]
        },
        {
            "name" : "Sphere.001",
            "primitives" : [
                {
                    "attributes" : {
                        "POSITION" : 4,
                        "NORMAL" : 5,
                        "TEXCOORD_0" : 6
                    },
                    "indices" : 3,
                    "material" : 1
                }
            ]
        },
        {
            "name" : "Sphere.003",
            "primitives" : [
                {
                    "attributes" : {
                        "POSITION" : 7,
                        "NORMAL" : 8,
                        "TEXCOORD_0" : 9
                    },
                    "indices" : 3,
                    "material" : 2
                }
            ]
        },
        {
            "name" : "Sphere.004",
            "primitives" : [
                {
                    "attributes" : {
                        "POSITION" : 10,
                        "NORMAL" : 11,
                        "TEXCOORD_0" : 12
                    },
                    "indices" : 3,
                    "material" : 3
                }
            ]
        },
        {
            "name" : "Sphere.005",
            "primitives" : [
                {
                    "attributes" : {
                        "POSITION" : 13,
                        "NORMAL" : 14,
                        "TEXCOORD_0" : 15
                    },
                    "indices" : 3,
                    "material" : 4
                }
            ]
        },
        {
            "name" : "Sphere.008",
            "primitives" : [
                {
                    "attributes" : {
                        "POSITION" : 16,
                        "NORMAL" : 17,
                        "TEXCOORD_0" : 18
                    },
                    "indices" : 3,
                    "material" : 5
                }
            ]
        },
        {
            "name" : "Sphere.009",
            "primitives" : [
                {
                    "attributes" : {
                        "POSITION" : 19,
                        "NORMAL" : 20,
                        "TEXCOORD_0" : 21
                    },
                    "indices" : 3,
                    "material" : 6
                }
            ]
        },
        {
            "name" : "Torus",
            "primitives" : [
                {
                    "attributes" : {
                        "POSITION" : 22,
                        "NORMAL" : 23,
                        "TEXCOORD_0" : 24
                    },
                    "indices" : 25,
                    "material" : 7
                }
            ]
        },
        {
            "name" : "Sphere.010",
            "primitives" : [
                {
                    "attributes" : {
                        "POSITION" : 26,
                        "NORMAL" : 27,
                        "TEXCOORD_0" : 28
                    },
                    "indices" : 3,
                    "material" : 8
                }
            ]
        },
        {
            "name" : "Sphere.012",
            "primitives" : [
                {
                    "attributes" : {
                        "POSITION" : 29,
                        "NORMAL" : 30,
                        "TEXCOORD_0" : 31
                    },
                    "indices" : 3,
                    "material" : 9
                }
            ]
        }
    ],
    "accessors" : [
        {
            "bufferView" : 0,
            "componentType" : 5126,
            "count" : 559,
            "max" : [
                0.9999997019767761,
                1,
                0.9999994039535522
            ],
            "min" : [
                -0.9999990463256836,
                -1,
                -0.9999987483024597
            ],
            "type" : "VEC3"
        },
        {
            "bufferView" : 1,
            "componentType" : 5126,
            "count" : 559,
            "type" : "VEC3"
        },
        {
            "bufferView" : 2,
            "componentType" : 5126,
            "count" : 559,
            "type" : "VEC2"
        },
        {
            "bufferView" : 3,
            "componentType" : 5123,
            "count" : 2880,
            "type" : "SCALAR"
        },
        {
            "bufferView" : 4,
            "componentType" : 5126,
            "count" : 559,
            "max" : [
                0.9999997019767761,
                1,
                0.9999994039535522
            ],
            "min" : [
                -0.9999990463256836,
                -1,
                -0.9999987483024597
            ],
            "type" : "VEC3"
        },
        {
            "bufferView" : 5,
            "componentType" : 5126,
            "count" : 559,
            "type" : "VEC3"
        },
        {
            "bufferView" : 6,
            "componentType" : 5126,
            "count" : 559,
            "type" : "VEC2"
        },
        {
            "bufferView" : 7,
            "componentType" : 5126,
            "count" : 559,
            "max" : [
                0.9999997019767761,
                1,
                0.9999994039535522
            ],
            "min" : [
                -0.9999990463256836,
                -1,
                -0.9999987483024597
            ],
            "type" : "VEC3"
        },
        {
            "bufferView" : 8,
            "componentType" : 5126,
            "count" : 559,
            "type" : "VEC3"
        },
        {
            "bufferView" : 9,
            "componentType" : 5126,
            "count" : 559,
            "type" : "VEC2"
        },
        {
            "bufferView" : 10,
            "componentType" : 5126,
            "count" : 559,
            "max" : [
                0.9999997019767761,
                1,
                0.9999994039535522
            ],
            "min" : [
                -0.9999990463256836,
                -1,
                -0.9999987483024597
            ],
            "type" : "VEC3"
        },
        {
            "bufferView" : 11,
            "componentType" : 5126,
            "count" : 559,
            "type" : "VEC3"
        },
        {
            "bufferView" : 12,
            "componentType" : 5126,
            "count" : 559,
            "type" : "VEC2"
        },
        {
            "bufferView" : 13,
            "componentType" : 5126,
            "count" : 559,
            "max" : [
                0.9999997019767761,
                1,
                0.9999994039535522
            ],
            "min" : [
                -0.9999990463256836,
                -1,
                -0.9999987483024597
            ],
            "type" : "VEC3"
        },
        {
            "bufferView" : 14,
            "componentType" : 5126,
            "count" : 559,
            "type" : "VEC3"
        },
        {
            "bufferView" : 15,
            "componentType" : 5126,
            "count" : 559,
            "type" : "VEC2"
        },
        {
            "bufferView" : 16,
            "componentType" : 5126,
            "count" : 559,
            "max" : [
                0.9999997019767761,
                1,
                0.9999994039535522
            ],
            "min" : [
                -0.9999990463256836,
                -1,
                -0.9999987483024597
            ],
            "type" : "VEC3"
        },
        {
            "bufferView" : 17,
            "componentType" : 5126,
            "count" : 559,
            "type" : "VEC3"
        },
        {
            "bufferView" : 18,
            "componentType" : 5126,
            "count" : 559,
            "type" : "VEC2"
        },
        {
            "bufferView" : 19,
            "componentType" : 5126,
            "count" : 559,
            "max" : [
                0.9999997019767761,
                1,
                0.9999994039535522
            ],
            "min" : [
                -0.9999990463256836,
                -1,
                -0.9999987483024597
            ],
            "type" : "VEC3"
        },
        {
            "bufferView" : 20,
            "componentType" : 5126,
            "count" : 559,
            "type" : "VEC3"
        },
        {
            "bufferView" : 21,
            "componentType" : 5126,
            "count" : 559,
            "type" : "VEC2"
        },
        {
            "bufferView" : 22,
            "componentType" : 5126,
            "count" : 2304,
            "max" : [
                1.25,
                0.25,
                1.25
            ],
            "min" : [
                -1.25,
                -0.25,
                -1.25
            ],
            "type" : "VEC3"
        },
        {
            "bufferView" : 23,
            "componentType" : 5126,
            "count" : 2304,
            "type" : "VEC3"
        },
        {
            "bufferView" : 24,
            "componentType" : 5126,
            "count" : 2304,
            "type" : "VEC2"
        },
        {
            "bufferView" : 25,
            "componentType" : 5123,
            "count" : 3456,
            "type" : "SCALAR"
        },
        {
            "bufferView" : 26,
            "componentType" : 5126,
            "count" : 559,
            "max" : [
                0.9999997019767761,
                1,
                0.9999994039535522
            ],
            "min" : [
                -0.9999990463256836,
                -1,
                -0.9999987483024597
            ],
            "type" : "VEC3"
        },
        {
            "bufferView" : 27,
            "componentType" : 5126,
            "count" : 559,
            "type" : "VEC3"
        },
        {
            "bufferView" : 28,
            "componentType" : 5126,
            "count" : 559,
            "type" : "VEC2"
        },
        {
            "bufferView" : 29,
            "componentType" : 5126,
            "count" : 559,
            "max" : [
                0.9999997019767761,
                1,
                0.9999994039535522
            ],
            "min" : [
                -0.9999990463256836,
                -1,
                -0.9999987483024597
            ],
            "type" : "VEC3"
        },
        {
            "bufferView" : 30,
            "componentType" : 5126,
            "count" : 559,
            "type" : "VEC3"
        },
        {
            "bufferView" : 31,
            "componentType" : 5126,
            "count" : 559,
            "type" : "VEC2"
        }
    ],
    "bufferViews" : [
        {
            "buffer" : 0,
            "byteLength" : 6708,
            "byteOffset" : 0
        },
        {
            "buffer" : 0,
            "byteLength" : 6708,
            "byteOffset" : 6708
        },
        {
            "buffer" : 0,
            "byteLength" : 4472,
            "byteOffset" : 13416
        },
        {
            "buffer" : 0,
            "byteLength" : 5760,
            "byteOffset" : 17888
        },
        {
            "buffer" : 0,
            "byteLength" : 6708,
            "byteOffset" : 23648
        },
        {
            "buffer" : 0,
            "byteLength" : 6708,
            "byteOffset" : 30356
        },
        {
            "buffer" : 0,
            "byteLength" : 4472,
            "byteOffset" : 37064
        },
        {
            "buffer" : 0,
            "byteLength" : 6708,
            "byteOffset" : 41536
        },
        {
            "buffer" : 0,
            "byteLength" : 6708,
            "byteOffset" : 48244
        },
        {
            "buffer" : 0,
            "byteLength" : 4472,
            "byteOffset" : 54952
        },
        {
            "buffer" : 0,
            "byteLength" : 6708,
            "byteOffset" : 59424
        },
        {
            "buffer" : 0,
            "byteLength" : 6708,
            "byteOffset" : 66132
        },
        {
            "buffer" : 0,
            "byteLength" : 4472,
            "byteOffset" : 72840
        },
        {
            "buffer" : 0,
            "byteLength" : 6708,
            "byteOffset" : 77312
        },
        {
            "buffer" : 0,
            "byteLength" : 6708,
            "byteOffset" : 84020
        },
        {
            "buffer" : 0,
            "byteLength" : 4472,
            "byteOffset" : 90728
        },
        {
            "buffer" : 0,
            "byteLength" : 6708,
            "byteOffset" : 95200
        },
        {
            "buffer" : 0,
            "byteLength" : 6708,
            "byteOffset" : 101908
        },
        {
            "buffer" : 0,
            "byteLength" : 4472,
            "byteOffset" : 108616
        },
        {
            "buffer" : 0,
            "byteLength" : 6708,
            "byteOffset" : 113088
        },
        {
            "buffer" : 0,
            "byteLength" : 6708,
            "byteOffset" : 119796
        },
        {
            "buffer" : 0,
            "byteLength" : 4472,
            "byteOffset" : 126504
        },
        {
            "buffer" : 0,
            "byteLength" : 27648,
            "byteOffset" : 130976
        },
        {
            "buffer" : 0,
            "byteLength" : 27648,
            "byteOffset" : 158624
        },
        {
            "buffer" : 0,
            "byteLength" : 18432,
            "byteOffset" : 186272
        },
        {
            "buffer" : 0,
            "byteLength" : 6912,
            "byteOffset" : 204704
        },
        {
            "buffer" : 0,
            "byteLength" : 6708,
            "byteOffset" : 211616
        },
        {
            "buffer" : 0,
            "byteLength" : 6708,
            "byteOffset" : 218324
        },
        {
            "buffer" : 0,
            "byteLength" : 4472,
            "byteOffset" : 225032
        },
        {
            "buffer" : 0,
            "byteLength" : 6708,
            "byteOffset" : 229504
        },
        {
            "buffer" : 0,
            "byteLength" : 6708,
            "byteOffset" : 236212
        },
        {
            "buffer" : 0,
            "byteLength" : 4472,
            "byteOffset" : 242920
        }
    ],
    "buffers" : [
        {
            "byteLength" : 247392,
            "uri" : "data:application/octet-stream;base64,"
        }
    ]
}
